--40000LOG 12:20:35:470886800 Waiting for file /home/seluser/videos/vid_chrome_or_firefox_40000* to be created...
Won't start video recording due to VIDEO env var false
ffmpeg version 2.8.17-0ubuntu0.1 Copyright (c) 2000-2020 the FFmpeg developers
  built with gcc 5.4.0 (Ubuntu 5.4.0-6ubuntu1~16.04.12) 20160609
  configuration: --prefix=/usr --extra-version=0ubuntu0.1 --build-suffix=-ffmpeg --toolchain=hardened --libdir=/usr/lib/x86_64-linux-gnu --incdir=/usr/include/x86_64-linux-gnu --cc=cc --cxx=g++ --enable-gpl --enable-shared --disable-stripping --disable-decoder=libopenjpeg --disable-decoder=libschroedinger --enable-avresample --enable-avisynth --enable-gnutls --enable-ladspa --enable-libass --enable-libbluray --enable-libbs2b --enable-libcaca --enable-libcdio --enable-libflite --enable-libfontconfig --enable-libfreetype --enable-libfribidi --enable-libgme --enable-libgsm --enable-libmodplug --enable-libmp3lame --enable-libopenjpeg --enable-libopus --enable-libpulse --enable-librtmp --enable-libschroedinger --enable-libshine --enable-libsnappy --enable-libsoxr --enable-libspeex --enable-libssh --enable-libtheora --enable-libtwolame --enable-libvorbis --enable-libvpx --enable-libwavpack --enable-libwebp --enable-libx265 --enable-libxvid --enable-libzvbi --enable-openal --enable-opengl --enable-x11grab --enable-libdc1394 --enable-libiec61883 --enable-libzmq --enable-frei0r --enable-libx264 --enable-libopencv
  libavutil      54. 31.100 / 54. 31.100
  libavcodec     56. 60.100 / 56. 60.100
  libavformat    56. 40.101 / 56. 40.101
  libavdevice    56.  4.100 / 56.  4.100
  libavfilter     5. 40.101 /  5. 40.101
  libavresample   2.  1.  0 /  2.  1.  0
  libswscale      3.  1.101 /  3.  1.101
  libswresample   1.  2.101 /  1.  2.101
  libpostproc    53.  3.100 / 53.  3.100
Input #0, x11grab, from ':28.0':
  Duration: N/A, start: 1603880435.671318, bitrate: N/A
    Stream #0:0: Video: rawvideo (BGR[0] / 0x524742), bgr0, 1366x768, 10 fps, 10 tbr, 1000k tbn, 10 tbc
[libx264 @ 0x7c9320] using cpu capabilities: MMX2 SSE2Fast SSSE3 SSE4.2 AVX FMA3 AVX2 LZCNT BMI2
[libx264 @ 0x7c9320] profile Constrained Baseline, level 3.2
[libx264 @ 0x7c9320] 264 - core 148 r2643 5c65704 - H.264/MPEG-4 AVC codec - Copyleft 2003-2015 - http://www.videolan.org/x264.html - options: cabac=0 ref=1 deblock=0:0:0 analyse=0:0 me=dia subme=0 psy=1 psy_rd=1.00:0.00 mixed_ref=0 me_range=16 chroma_me=1 trellis=0 8x8dct=0 cqm=0 deadzone=21,11 fast_pskip=1 chroma_qp_offset=0 threads=3 lookahead_threads=1 sliced_threads=0 nr=0 decimate=1 interlaced=0 bluray_compat=0 constrained_intra=0 bframes=0 weightp=0 keyint=250 keyint_min=10 scenecut=0 intra_refresh=0 rc=crf mbtree=0 crf=23.0 qcomp=0.60 qpmin=0 qpmax=69 qpstep=4 ip_ratio=1.40 aq=0
Output #0, matroska, to '/home/seluser/videos/vid_chrome_or_firefox_40000.mkv':
  Metadata:
    encoder         : Lavf56.40.101
    Stream #0:0: Video: h264 (libx264) (H264 / 0x34363248), yuv420p, 1366x768, q=-1--1, 10 fps, 1k tbn, 10 tbc
    Metadata:
      encoder         : Lavc56.60.100 libx264
Stream mapping:
  Stream #0:0 -> #0:0 (rawvideo (native) -> h264 (libx264))
Press [q] to stop, [?] for help
[swscaler @ 0x7d4ca0] Warning: data is not aligned! This can lead to a speedloss
frame=    8 fps=0.0 q=10.0 size=      26kB time=00:00:00.40 bitrate= 538.6kbits/s    
frame=   14 fps= 13 q=9.0 size=      28kB time=00:00:01.00 bitrate= 228.2kbits/s    
frame=   20 fps= 12 q=9.0 size=      29kB time=00:00:01.60 bitrate= 146.4kbits/s    
frame=   25 fps= 11 q=13.0 size=      32kB time=00:00:02.10 bitrate= 124.7kbits/s    
frame=   31 fps= 11 q=10.0 size=      56kB time=00:00:02.70 bitrate= 171.2kbits/s    
frame=   37 fps= 11 q=9.0 size=      59kB time=00:00:03.30 bitrate= 146.2kbits/s    
frame=   42 fps= 11 q=9.0 size=      60kB time=00:00:03.80 bitrate= 130.0kbits/s    
frame=   47 fps= 11 q=9.0 size=      61kB time=00:00:04.30 bitrate= 116.9kbits/s    
frame=   53 fps= 11 q=14.0 size=      87kB time=00:00:04.90 bitrate= 146.0kbits/s    
frame=   59 fps= 10 q=10.0 size=     111kB time=00:00:05.50 bitrate= 165.4kbits/s    
frame=   64 fps= 10 q=10.0 size=     121kB time=00:00:06.00 bitrate= 165.8kbits/s    
frame=   70 fps= 10 q=10.0 size=     127kB time=00:00:06.60 bitrate= 157.8kbits/s    
frame=   75 fps= 10 q=9.0 size=     128kB time=00:00:07.10 bitrate= 147.6kbits/s    
frame=   80 fps= 10 q=9.0 size=     128kB time=00:00:07.60 bitrate= 138.3kbits/s    
frame=   85 fps= 10 q=9.0 size=     129kB time=00:00:08.10 bitrate= 130.0kbits/s    
frame=   91 fps= 10 q=9.0 size=     129kB time=00:00:08.70 bitrate= 121.5kbits/s    
frame=   97 fps= 10 q=9.0 size=     129kB time=00:00:09.30 bitrate= 114.0kbits/s    
frame=  103 fps= 10 q=9.0 size=     130kB time=00:00:09.90 bitrate= 107.5kbits/s    
frame=  108 fps= 10 q=9.0 size=     130kB time=00:00:10.40 bitrate= 102.5kbits/s    
frame=  114 fps= 10 q=9.0 size=     131kB time=00:00:11.00 bitrate=  97.3kbits/s    
frame=  120 fps= 10 q=9.0 size=     131kB time=00:00:11.60 bitrate=  92.5kbits/s    
frame=  125 fps= 10 q=9.0 size=     131kB time=00:00:12.10 bitrate=  88.9kbits/s    
frame=  131 fps= 10 q=9.0 size=     132kB time=00:00:12.70 bitrate=  85.0kbits/s    
frame=  137 fps= 10 q=9.0 size=     132kB time=00:00:13.30 bitrate=  81.4kbits/s    
frame=  143 fps= 10 q=9.0 size=     133kB time=00:00:13.90 bitrate=  78.1kbits/s    
frame=  149 fps= 10 q=9.0 size=     133kB time=00:00:14.50 bitrate=  75.2kbits/s    
frame=  154 fps= 10 q=9.0 size=     133kB time=00:00:15.00 bitrate=  72.8kbits/s    
frame=  160 fps= 10 q=9.0 size=     134kB time=00:00:15.60 bitrate=  70.3kbits/s    
frame=  166 fps= 10 q=9.0 size=     134kB time=00:00:16.20 bitrate=  67.8kbits/s    
frame=  172 fps= 10 q=9.0 size=     135kB time=00:00:16.80 bitrate=  65.7kbits/s    
frame=  178 fps= 10 q=9.0 size=     135kB time=00:00:17.40 bitrate=  63.5kbits/s    
frame=  184 fps= 10 q=9.0 size=     135kB time=00:00:18.00 bitrate=  61.6kbits/s    
frame=  189 fps= 10 q=9.0 size=     136kB time=00:00:18.50 bitrate=  60.1kbits/s    
frame=  195 fps= 10 q=9.0 size=     136kB time=00:00:19.10 bitrate=  58.4kbits/s    
frame=  200 fps= 10 q=9.0 size=     137kB time=00:00:19.60 bitrate=  57.1kbits/s    
frame=  205 fps= 10 q=9.0 size=     137kB time=00:00:20.10 bitrate=  55.7kbits/s    
frame=  210 fps= 10 q=9.0 size=     137kB time=00:00:20.60 bitrate=  54.6kbits/s    
frame=  216 fps= 10 q=9.0 size=     138kB time=00:00:21.20 bitrate=  53.1kbits/s    
frame=  221 fps= 10 q=9.0 size=     138kB time=00:00:21.70 bitrate=  52.1kbits/s    
frame=  227 fps= 10 q=9.0 size=     138kB time=00:00:22.30 bitrate=  50.8kbits/s    
frame=  232 fps= 10 q=9.0 size=     139kB time=00:00:22.80 bitrate=  49.8kbits/s    
frame=  238 fps= 10 q=9.0 size=     139kB time=00:00:23.40 bitrate=  48.7kbits/s    
frame=  243 fps= 10 q=9.0 size=     139kB time=00:00:23.90 bitrate=  47.7kbits/s    
frame=  249 fps= 10 q=9.0 size=     140kB time=00:00:24.50 bitrate=  46.8kbits/s    
frame=  255 fps= 10 q=15.0 size=     211kB time=00:00:25.10 bitrate=  69.0kbits/s    
frame=  260 fps= 10 q=10.0 size=     212kB time=00:00:25.60 bitrate=  67.8kbits/s    
frame=  266 fps= 10 q=10.0 size=     214kB time=00:00:26.20 bitrate=  66.8kbits/s    
frame=  272 fps= 10 q=9.0 size=     214kB time=00:00:26.80 bitrate=  65.5kbits/s    
frame=  277 fps= 10 q=9.0 size=     214kB time=00:00:27.30 bitrate=  64.3kbits/s    
frame=  283 fps= 10 q=9.0 size=     215kB time=00:00:27.90 bitrate=  63.0kbits/s    
frame=  289 fps= 10 q=9.0 size=     215kB time=00:00:28.50 bitrate=  61.8kbits/s    
frame=  295 fps= 10 q=9.0 size=     215kB time=00:00:29.10 bitrate=  60.6kbits/s    
frame=  301 fps= 10 q=9.0 size=     216kB time=00:00:29.70 bitrate=  59.5kbits/s    
frame=  306 fps= 10 q=9.0 size=     216kB time=00:00:30.20 bitrate=  58.6kbits/s    
frame=  311 fps= 10 q=9.0 size=     216kB time=00:00:30.70 bitrate=  57.7kbits/s    
frame=  316 fps= 10 q=9.0 size=     216kB time=00:00:31.20 bitrate=  56.8kbits/s    
frame=  321 fps= 10 q=9.0 size=     217kB time=00:00:31.70 bitrate=  56.0kbits/s    
frame=  327 fps= 10 q=9.0 size=     217kB time=00:00:32.30 bitrate=  55.1kbits/s    
frame=  333 fps= 10 q=9.0 size=     217kB time=00:00:32.90 bitrate=  54.1kbits/s    
frame=  339 fps= 10 q=9.0 size=     218kB time=00:00:33.50 bitrate=  53.3kbits/s    
frame=  344 fps= 10 q=9.0 size=     218kB time=00:00:34.00 bitrate=  52.5kbits/s    
frame=  349 fps= 10 q=9.0 size=     218kB time=00:00:34.50 bitrate=  51.8kbits/s    
frame=  354 fps= 10 q=9.0 size=     218kB time=00:00:35.00 bitrate=  51.1kbits/s    
frame=  360 fps= 10 q=9.0 size=     219kB time=00:00:35.60 bitrate=  50.4kbits/s    
frame=  365 fps= 10 q=9.0 size=     219kB time=00:00:36.10 bitrate=  49.7kbits/s    
frame=  370 fps= 10 q=9.0 size=     219kB time=00:00:36.60 bitrate=  49.1kbits/s    
frame=  376 fps= 10 q=9.0 size=     220kB time=00:00:37.20 bitrate=  48.4kbits/s    
frame=  382 fps= 10 q=9.0 size=     220kB time=00:00:37.80 bitrate=  47.7kbits/s    
frame=  388 fps= 10 q=9.0 size=     220kB time=00:00:38.40 bitrate=  47.0kbits/s    
frame=  393 fps= 10 q=9.0 size=     221kB time=00:00:38.90 bitrate=  46.5kbits/s    
frame=  399 fps= 10 q=9.0 size=     221kB time=00:00:39.50 bitrate=  45.8kbits/s    
frame=  404 fps= 10 q=9.0 size=     221kB time=00:00:40.00 bitrate=  45.3kbits/s    
frame=  410 fps= 10 q=9.0 size=     222kB time=00:00:40.60 bitrate=  44.7kbits/s    
frame=  416 fps= 10 q=9.0 size=     222kB time=00:00:41.20 bitrate=  44.1kbits/s    
frame=  421 fps= 10 q=9.0 size=     222kB time=00:00:41.70 bitrate=  43.6kbits/s    
frame=  426 fps= 10 q=9.0 size=     222kB time=00:00:42.20 bitrate=  43.2kbits/s    
frame=  432 fps= 10 q=9.0 size=     223kB time=00:00:42.80 bitrate=  42.6kbits/s    
frame=  437 fps= 10 q=9.0 size=     223kB time=00:00:43.30 bitrate=  42.2kbits/s    
frame=  443 fps= 10 q=9.0 size=     223kB time=00:00:43.90 bitrate=  41.7kbits/s    
frame=  449 fps= 10 q=9.0 size=     224kB time=00:00:44.50 bitrate=  41.2kbits/s    
frame=  454 fps= 10 q=9.0 size=     224kB time=00:00:45.00 bitrate=  40.8kbits/s    
frame=  460 fps= 10 q=9.0 size=     224kB time=00:00:45.60 bitrate=  40.3kbits/s    
frame=  465 fps= 10 q=9.0 size=     225kB time=00:00:46.10 bitrate=  39.9kbits/s    
frame=  471 fps= 10 q=9.0 size=     225kB time=00:00:46.70 bitrate=  39.5kbits/s    
frame=  476 fps= 10 q=9.0 size=     225kB time=00:00:47.20 bitrate=  39.1kbits/s    
frame=  482 fps= 10 q=9.0 size=     226kB time=00:00:47.80 bitrate=  38.7kbits/s    
frame=  488 fps= 10 q=9.0 size=     226kB time=00:00:48.40 bitrate=  38.2kbits/s    
frame=  495 fps= 10 q=9.0 size=     226kB time=00:00:49.10 bitrate=  37.8kbits/s    
frame=  500 fps= 10 q=9.0 size=     227kB time=00:00:49.60 bitrate=  37.4kbits/s    
frame=  506 fps= 10 q=13.0 size=     297kB time=00:00:50.20 bitrate=  48.5kbits/s    
frame=  511 fps= 10 q=9.0 size=     297kB time=00:00:50.70 bitrate=  48.1kbits/s    
frame=  517 fps= 10 q=9.0 size=     298kB time=00:00:51.30 bitrate=  47.5kbits/s    
frame=  522 fps= 10 q=9.0 size=     298kB time=00:00:51.80 bitrate=  47.1kbits/s    
frame=  528 fps= 10 q=9.0 size=     298kB time=00:00:52.40 bitrate=  46.6kbits/s    
frame=  534 fps= 10 q=9.0 size=     299kB time=00:00:53.00 bitrate=  46.2kbits/s    
frame=  540 fps= 10 q=9.0 size=     299kB time=00:00:53.60 bitrate=  45.7kbits/s    
frame=  546 fps= 10 q=9.0 size=     299kB time=00:00:54.20 bitrate=  45.2kbits/s    
frame=  551 fps= 10 q=9.0 size=     300kB time=00:00:54.70 bitrate=  44.9kbits/s    
frame=  556 fps= 10 q=9.0 size=     300kB time=00:00:55.20 bitrate=  44.5kbits/s    
frame=  562 fps= 10 q=9.0 size=     300kB time=00:00:55.80 bitrate=  44.1kbits/s    
frame=  568 fps= 10 q=9.0 size=     301kB time=00:00:56.40 bitrate=  43.7kbits/s    
frame=  574 fps= 10 q=9.0 size=     301kB time=00:00:57.00 bitrate=  43.3kbits/s    
frame=  580 fps= 10 q=9.0 size=     301kB time=00:00:57.60 bitrate=  42.9kbits/s    
frame=  586 fps= 10 q=9.0 size=     302kB time=00:00:58.20 bitrate=  42.5kbits/s    
frame=  591 fps= 10 q=9.0 size=     302kB time=00:00:58.70 bitrate=  42.1kbits/s    
frame=  597 fps= 10 q=9.0 size=     302kB time=00:00:59.30 bitrate=  41.7kbits/s    
frame=  602 fps= 10 q=9.0 size=     303kB time=00:00:59.80 bitrate=  41.4kbits/s    
frame=  608 fps= 10 q=9.0 size=     303kB time=00:01:00.40 bitrate=  41.1kbits/s    
frame=  614 fps= 10 q=9.0 size=     303kB time=00:01:01.00 bitrate=  40.7kbits/s    
frame=  620 fps= 10 q=9.0 size=     304kB time=00:01:01.60 bitrate=  40.4kbits/s    
frame=  626 fps= 10 q=9.0 size=     304kB time=00:01:02.20 bitrate=  40.0kbits/s    
frame=  631 fps= 10 q=9.0 size=     304kB time=00:01:02.70 bitrate=  39.7kbits/s    
frame=  636 fps= 10 q=9.0 size=     304kB time=00:01:03.20 bitrate=  39.4kbits/s    
frame=  641 fps= 10 q=9.0 size=     305kB time=00:01:03.70 bitrate=  39.2kbits/s    
frame=  646 fps= 10 q=9.0 size=     305kB time=00:01:04.20 bitrate=  38.9kbits/s    
frame=  652 fps= 10 q=9.0 size=     305kB time=00:01:04.80 bitrate=  38.6kbits/s    
frame=  657 fps= 10 q=9.0 size=     306kB time=00:01:05.30 bitrate=  38.3kbits/s    
frame=  663 fps= 10 q=9.0 size=     306kB time=00:01:05.90 bitrate=  38.0kbits/s    
frame=  669 fps= 10 q=9.0 size=     306kB time=00:01:06.50 bitrate=  37.7kbits/s    
frame=  675 fps= 10 q=9.0 size=     307kB time=00:01:07.10 bitrate=  37.4kbits/s    
frame=  681 fps= 10 q=9.0 size=     307kB time=00:01:07.70 bitrate=  37.1kbits/s    
frame=  687 fps= 10 q=9.0 size=     307kB time=00:01:08.30 bitrate=  36.8kbits/s    
frame=  692 fps= 10 q=9.0 size=     308kB time=00:01:08.80 bitrate=  36.6kbits/s    
frame=  698 fps= 10 q=9.0 size=     308kB time=00:01:09.40 bitrate=  36.3kbits/s    
frame=  704 fps= 10 q=9.0 size=     308kB time=00:01:10.00 bitrate=  36.1kbits/s    
frame=  709 fps= 10 q=9.0 size=     308kB time=00:01:10.50 bitrate=  35.8kbits/s    
frame=  715 fps= 10 q=9.0 size=     309kB time=00:01:11.10 bitrate=  35.6kbits/s    
frame=  720 fps= 10 q=9.0 size=     309kB time=00:01:11.60 bitrate=  35.3kbits/s    
frame=  725 fps= 10 q=9.0 size=     309kB time=00:01:12.10 bitrate=  35.1kbits/s    
frame=  731 fps= 10 q=9.0 size=     310kB time=00:01:12.70 bitrate=  34.9kbits/s    
frame=  737 fps= 10 q=9.0 size=     310kB time=00:01:13.30 bitrate=  34.6kbits/s    
frame=  743 fps= 10 q=9.0 size=     310kB time=00:01:13.90 bitrate=  34.4kbits/s    
frame=  748 fps= 10 q=9.0 size=     310kB time=00:01:14.40 bitrate=  34.2kbits/s    
frame=  754 fps= 10 q=17.0 size=     311kB time=00:01:15.00 bitrate=  34.0kbits/s    
frame=  759 fps= 10 q=10.0 size=     382kB time=00:01:15.50 bitrate=  41.4kbits/s    
frame=  765 fps= 10 q=9.0 size=     382kB time=00:01:16.10 bitrate=  41.1kbits/s    
frame=  771 fps= 10 q=9.0 size=     382kB time=00:01:16.70 bitrate=  40.8kbits/s    
frame=  776 fps= 10 q=9.0 size=     382kB time=00:01:17.20 bitrate=  40.6kbits/s    
frame=  782 fps= 10 q=9.0 size=     383kB time=00:01:17.80 bitrate=  40.3kbits/s    
frame=  788 fps= 10 q=9.0 size=     383kB time=00:01:18.40 bitrate=  40.0kbits/s    
frame=  794 fps= 10 q=9.0 size=     383kB time=00:01:19.00 bitrate=  39.8kbits/s    
frame=  800 fps= 10 q=9.0 size=     384kB time=00:01:19.60 bitrate=  39.5kbits/s    
frame=  806 fps= 10 q=9.0 size=     384kB time=00:01:20.20 bitrate=  39.2kbits/s    
frame=  811 fps= 10 q=9.0 size=     384kB time=00:01:20.70 bitrate=  39.0kbits/s    
frame=  816 fps= 10 q=9.0 size=     385kB time=00:01:21.20 bitrate=  38.8kbits/s    
frame=  822 fps= 10 q=9.0 size=     385kB time=00:01:21.80 bitrate=  38.5kbits/s    
frame=  828 fps= 10 q=9.0 size=     385kB time=00:01:22.40 bitrate=  38.3kbits/s    
frame=  833 fps= 10 q=9.0 size=     386kB time=00:01:22.90 bitrate=  38.1kbits/s    
frame=  839 fps= 10 q=9.0 size=     386kB time=00:01:23.50 bitrate=  37.9kbits/s    
frame=  844 fps= 10 q=9.0 size=     386kB time=00:01:24.00 bitrate=  37.7kbits/s    
frame=  849 fps= 10 q=9.0 size=     387kB time=00:01:24.50 bitrate=  37.5kbits/s    
frame=  855 fps= 10 q=9.0 size=     387kB time=00:01:25.10 bitrate=  37.2kbits/s    
frame=  860 fps= 10 q=9.0 size=     387kB time=00:01:25.60 bitrate=  37.1kbits/s    
frame=  865 fps= 10 q=9.0 size=     387kB time=00:01:26.10 bitrate=  36.9kbits/s    
frame=  871 fps= 10 q=9.0 size=     388kB time=00:01:26.70 bitrate=  36.6kbits/s    
frame=  877 fps= 10 q=9.0 size=     388kB time=00:01:27.30 bitrate=  36.4kbits/s    
frame=  883 fps= 10 q=9.0 size=     388kB time=00:01:27.90 bitrate=  36.2kbits/s    
frame=  888 fps= 10 q=9.0 size=     389kB time=00:01:28.40 bitrate=  36.0kbits/s    
frame=  894 fps= 10 q=9.0 size=     389kB time=00:01:29.00 bitrate=  35.8kbits/s    
frame=  900 fps= 10 q=9.0 size=     389kB time=00:01:29.60 bitrate=  35.6kbits/s    
frame=  905 fps= 10 q=9.0 size=     390kB time=00:01:30.10 bitrate=  35.4kbits/s    
frame=  911 fps= 10 q=9.0 size=     390kB time=00:01:30.70 bitrate=  35.2kbits/s    
frame=  916 fps= 10 q=9.0 size=     390kB time=00:01:31.20 bitrate=  35.1kbits/s    
frame=  922 fps= 10 q=9.0 size=     391kB time=00:01:31.80 bitrate=  34.9kbits/s    
frame=  928 fps= 10 q=9.0 size=     391kB time=00:01:32.40 bitrate=  34.7kbits/s    
frame=  933 fps= 10 q=9.0 size=     391kB time=00:01:32.90 bitrate=  34.5kbits/s    
frame=  939 fps= 10 q=9.0 size=     392kB time=00:01:33.50 bitrate=  34.3kbits/s    
frame=  945 fps= 10 q=9.0 size=     392kB time=00:01:34.10 bitrate=  34.1kbits/s    
frame=  950 fps= 10 q=9.0 size=     392kB time=00:01:34.60 bitrate=  34.0kbits/s    
frame=  956 fps= 10 q=9.0 size=     392kB time=00:01:35.20 bitrate=  33.8kbits/s    
frame=  961 fps= 10 q=9.0 size=     393kB time=00:01:35.70 bitrate=  33.6kbits/s    
frame=  966 fps= 10 q=9.0 size=     393kB time=00:01:36.20 bitrate=  33.5kbits/s    
frame=  972 fps= 10 q=9.0 size=     393kB time=00:01:36.80 bitrate=  33.3kbits/s    
frame=  977 fps= 10 q=9.0 size=     393kB time=00:01:37.30 bitrate=  33.1kbits/s    
frame=  983 fps= 10 q=9.0 size=     394kB time=00:01:37.90 bitrate=  33.0kbits/s    
frame=  989 fps= 10 q=9.0 size=     394kB time=00:01:38.50 bitrate=  32.8kbits/s    
frame=  995 fps= 10 q=9.0 size=     394kB time=00:01:39.10 bitrate=  32.6kbits/s    
frame= 1001 fps= 10 q=9.0 size=     395kB time=00:01:39.70 bitrate=  32.4kbits/s    
frame= 1006 fps= 10 q=13.0 size=     465kB time=00:01:40.20 bitrate=  38.1kbits/s    
frame= 1012 fps= 10 q=9.0 size=     466kB time=00:01:40.80 bitrate=  37.9kbits/s    
frame= 1017 fps= 10 q=9.0 size=     466kB time=00:01:41.30 bitrate=  37.7kbits/s    
frame= 1023 fps= 10 q=9.0 size=     466kB time=00:01:41.90 bitrate=  37.5kbits/s    
frame= 1028 fps= 10 q=9.0 size=     467kB time=00:01:42.40 bitrate=  37.3kbits/s    
frame= 1034 fps= 10 q=9.0 size=     467kB time=00:01:43.00 bitrate=  37.1kbits/s    
frame= 1040 fps= 10 q=9.0 size=     467kB time=00:01:43.60 bitrate=  37.0kbits/s    
frame= 1046 fps= 10 q=9.0 size=     468kB time=00:01:44.20 bitrate=  36.8kbits/s    
frame= 1051 fps= 10 q=9.0 size=     468kB time=00:01:44.70 bitrate=  36.6kbits/s    
frame= 1056 fps= 10 q=9.0 size=     468kB time=00:01:45.20 bitrate=  36.5kbits/s    
frame= 1061 fps= 10 q=9.0 size=     469kB time=00:01:45.70 bitrate=  36.3kbits/s    
frame= 1067 fps= 10 q=9.0 size=     469kB time=00:01:46.30 bitrate=  36.1kbits/s    
frame= 1072 fps= 10 q=9.0 size=     469kB time=00:01:46.80 bitrate=  36.0kbits/s    
frame= 1077 fps= 10 q=9.0 size=     469kB time=00:01:47.30 bitrate=  35.8kbits/s    
frame= 1083 fps= 10 q=9.0 size=     470kB time=00:01:47.90 bitrate=  35.7kbits/s    
frame= 1089 fps= 10 q=9.0 size=     470kB time=00:01:48.50 bitrate=  35.5kbits/s    
frame= 1094 fps= 10 q=9.0 size=     470kB time=00:01:49.00 bitrate=  35.4kbits/s    
frame= 1100 fps= 10 q=9.0 size=     471kB time=00:01:49.60 bitrate=  35.2kbits/s    
frame= 1105 fps= 10 q=9.0 size=     471kB time=00:01:50.10 bitrate=  35.0kbits/s    
frame= 1111 fps= 10 q=9.0 size=     471kB time=00:01:50.70 bitrate=  34.9kbits/s    
frame= 1116 fps= 10 q=9.0 size=     471kB time=00:01:51.20 bitrate=  34.7kbits/s    
frame= 1122 fps= 10 q=9.0 size=     472kB time=00:01:51.80 bitrate=  34.6kbits/s    
frame= 1127 fps= 10 q=9.0 size=     472kB time=00:01:52.30 bitrate=  34.4kbits/s    
frame= 1133 fps= 10 q=9.0 size=     472kB time=00:01:52.90 bitrate=  34.3kbits/s    
frame= 1138 fps= 10 q=9.0 size=     473kB time=00:01:53.40 bitrate=  34.1kbits/s    
frame= 1144 fps= 10 q=9.0 size=     473kB time=00:01:54.00 bitrate=  34.0kbits/s    
frame= 1149 fps= 10 q=9.0 size=     474kB time=00:01:54.50 bitrate=  33.9kbits/s    
frame= 1155 fps= 10 q=9.0 size=     474kB time=00:01:55.10 bitrate=  33.7kbits/s    
frame= 1160 fps= 10 q=9.0 size=     474kB time=00:01:55.60 bitrate=  33.6kbits/s    
frame= 1166 fps= 10 q=9.0 size=     474kB time=00:01:56.20 bitrate=  33.4kbits/s    
frame= 1172 fps= 10 q=9.0 size=     475kB time=00:01:56.80 bitrate=  33.3kbits/s    
frame= 1178 fps= 10 q=9.0 size=     480kB time=00:01:57.40 bitrate=  33.5kbits/s    
frame= 1181 fps= 10 q=-1.0 Lsize=     480kB time=00:01:58.10 bitrate=  33.3kbits/s    
video:472kB audio:0kB subtitle:0kB other streams:0kB global headers:0kB muxing overhead: 1.768562%
--40000LOG 12:22:33:718359800 Trapped SIGTERM or SIGINT so shutting down ffmpeg gracefully...
--40000LOG 12:22:33:728290600 Will kill VID_TOOL_PID=500 ...
[libx264 @ 0x7c9320] frame I:5     Avg QP: 8.80  size: 60748
[libx264 @ 0x7c9320] frame P:1176  Avg QP: 9.16  size:   152
[libx264 @ 0x7c9320] mb I  I16..4: 100.0%  0.0%  0.0%
[libx264 @ 0x7c9320] mb P  I16..4:  0.3%  0.0%  0.0%  P16..4:  0.1%  0.0%  0.0%  0.0%  0.0%    skip:99.6%
[libx264 @ 0x7c9320] coded y,uvDC,uvAC intra: 8.2% 5.5% 5.2% inter: 0.0% 0.0% 0.0%
[libx264 @ 0x7c9320] i16 v,h,dc,p: 83% 16%  1%  0%
[libx264 @ 0x7c9320] i8c dc,h,v,p: 83% 13%  3%  0%
[libx264 @ 0x7c9320] kb/s:32.70
Exiting normally, received signal 2.
--40000LOG 12:22:34:758386900 Tried to kill -SIGTERM VID_TOOL_PID=500
--40000LOG 12:22:34:763452700 Waiting up to 6s for VID_TOOL_PID=500 to end with SIGTERM...
--40000LOG 12:22:34:785214600 wait_pid successfully managed to SIGTERM:VID_TOOL_PID=500 within less than 6s
--40000LOG 12:22:34:789526900 Will try to fix the videos...
--40000LOG 12:22:35:314867400 Fixing perms for /home/seluser/videos/vid_chrome_or_firefox_40000.mkv*
--40000LOG 12:22:35:371782600 Changing video encoding from mkv to mp4...
--40000LOG 12:22:50:667353100 Conversion from mkv to mp4 succeeded!
--40000LOG 12:22:50:691841700 Cleaning up /home/seluser/videos/vid_chrome_or_firefox_40000.mkv ...
--40000LOG 12:22:50:735642200 Optimizing /home/seluser/videos/vid_chrome_or_firefox_40000.mp4 for HTTP streaming...
--40000LOG 12:22:50:928262300 Succeeded to mp4box_retry.sh within 8s
--40000LOG 12:22:50:966325300 ffmpeg shutdown complete.
